<?xml version="1.0" encoding="utf-8"?>
<!-- Generator: Adobe Illustrator 23.0.3, SVG Export Plug-In . SVG Version: 6.00 Build 0)  -->
<svg version="1.1" id="Layer_1" xmlns="http://www.w3.org/2000/svg" xmlns:xlink="http://www.w3.org/1999/xlink" x="0px" y="0px"
	 viewBox="0 0 429 220" style="enable-background:new 0 0 429 220;" xml:space="preserve">
<style type="text/css">
	.st0{fill:#EFEFEF;}
	.st1{fill:#FFFFFF;}
	.st2{fill:#CCCCCC;}
	.st3{fill:none;stroke:url(#SVGID_1_);stroke-width:3;stroke-miterlimit:10;}
	.st4{fill:none;stroke:url(#SVGID_2_);stroke-width:3;stroke-miterlimit:10;stroke-dasharray:12.4209,12.4209;}
	.st5{fill:none;stroke:url(#SVGID_3_);stroke-width:3;stroke-miterlimit:10;}
	.st6{fill-rule:evenodd;clip-rule:evenodd;fill:#3FA9F5;}
	.st7{fill-rule:evenodd;clip-rule:evenodd;fill:#38B1DF;}
	.st8{fill:#6D6D6D;}
	.st9{fill:none;stroke:url(#SVGID_4_);stroke-width:3;stroke-miterlimit:10;}
	.st10{fill:none;stroke:url(#SVGID_5_);stroke-width:3;stroke-miterlimit:10;stroke-dasharray:12.5486,12.5486;}
	.st11{fill:none;stroke:url(#SVGID_6_);stroke-width:3;stroke-miterlimit:10;}
	.st12{fill:none;stroke:url(#SVGID_7_);stroke-width:3;stroke-miterlimit:10;}
	.st13{fill:none;stroke:url(#SVGID_8_);stroke-width:3;stroke-miterlimit:10;stroke-dasharray:12.6041,12.6041;}
	.st14{fill:none;stroke:url(#SVGID_9_);stroke-width:3;stroke-miterlimit:10;}
	.st15{fill:#38B1DF;}
	.st16{fill:none;}
	.st17{fill:none;stroke:#939393;stroke-miterlimit:10;}
	.st18{fill:none;stroke:#939393;stroke-miterlimit:10;stroke-dasharray:14.8621,14.8621;}
	.st19{fill:none;stroke:#939393;stroke-miterlimit:10;stroke-dasharray:12.0413,12.0413;}
	.st20{fill:#7A7A7A;}
	.st21{fill:none;stroke:#606060;stroke-width:5;stroke-miterlimit:10;stroke-dasharray:10.996,10.996;}
	.st22{fill:none;stroke:#CCCCCC;stroke-width:3;stroke-miterlimit:10;}
	.st23{fill:none;stroke:#38B1DF;stroke-width:6;stroke-miterlimit:10;}
	.st24{fill:none;stroke:#38B1DF;stroke-width:6;stroke-miterlimit:10;stroke-dasharray:3.9141,3.9141;}
	.st25{fill:none;stroke:#606060;stroke-width:5;stroke-miterlimit:10;stroke-dasharray:11.0574,11.0574;}
	.st26{fill:#EDEDED;}
	.st27{fill:none;stroke:#AAAAAA;stroke-miterlimit:10;}
</style>
<g id="Logo_Blue_3_" transform="translate(-19.1 -10.79)">
	<path id="Path_3_3_" class="st15" d="M125.08,152.06c0.33-26.02-20.49-47.38-46.5-47.71c-0.86-0.01-1.72,0-2.57,0.04
		c-26.33-0.67-48.22,20.13-48.89,46.46c-0.67,26.33,20.13,48.22,46.46,48.89c0.81,0.02,1.62,0.02,2.43,0
		c5.79,0,11.54-0.94,17.03-2.78V170.8c-10.09,9.79-26.21,9.55-36-0.54c-9.79-10.09-9.55-26.21,0.54-36
		c10.09-9.79,26.21-9.55,36,0.54c4.5,4.63,7.07,10.8,7.18,17.26l0,0v41.65l0,0v36.61h24.3v-76.88l0,0
		C125.07,152.99,125.08,152.52,125.08,152.06z"/>
	<path id="Path_4_3_" class="st15" d="M157.35,143.51h40.1c-2.23-11.59-9.27-18.14-19.72-18.14
		C166.24,125.37,159.51,132.3,157.35,143.51 M221.94,151.92c0.01,2.75-0.15,5.5-0.47,8.24h-64.21
		c1.59,11.42,11.78,19.64,23.27,18.79c8.41-0.18,16.49-3.25,22.9-8.69l14.3,15.71c-10.62,9.39-24.46,14.31-38.62,13.74
		c-27.76,0-47.02-18.88-47.02-47.37s18.7-47.96,45.83-47.96c26.08,0,43.93,19.35,44.03,47.58"/>
	<rect id="Rectangle_4_3_" x="343.08" y="104.33" class="st15" width="24.4" height="93.02"/>
	<rect id="Rectangle_5_3_" x="343.08" y="73.79" class="st15" width="24.4" height="21.43"/>
	<path id="Path_5_3_" class="st15" d="M436.68,126.01h-28.54v35.53c0,11.33,5.98,15.42,13.55,15.42c6.08-0.47,11.93-2.5,16.99-5.89
		l8.98,19.05c-8.73,6.29-19.24,9.63-30.01,9.54c-22.44,0-33.93-12.71-33.93-29.46V73.79h24.4v30.54h28.54L436.68,126.01z"/>
	<path id="Path_6_3_" class="st15" d="M326.81,73.79h-24.3v36.61c-7.63-4.04-16.14-6.11-24.77-6.03
		c-25.94-1.04-47.82,19.14-48.86,45.08c-0.03,0.87-0.05,1.73-0.03,2.6c0.73,27.05,23.26,48.39,50.31,47.66
		c26.02-0.7,46.95-21.63,47.66-47.66c0-0.46,0-0.93,0-1.39l0,0L326.81,73.79z M277.73,177.02c-13.08,0.2-23.85-10.23-24.05-23.31
		c-0.01-0.55,0-1.1,0.03-1.64c-0.51-13.29,9.85-24.49,23.14-25c13.29-0.51,24.49,9.84,25,23.14c0.02,0.62,0.02,1.24,0,1.86
		c0.67,13.1-9.41,24.26-22.5,24.93C278.81,177.02,278.27,177.03,277.73,177.02z"/>
</g>
<g>
	<path d="M30.48,13.11c2.43,2.05,3.65,4.86,3.65,8.45c0,3.58-1.22,6.39-3.65,8.42c-2.43,2.03-5.79,3.05-10.08,3.05h-9.02v10.61H7.82
		v-33.6H20.4C24.68,10.04,28.04,11.06,30.48,13.11z M27.93,27.72c1.76-1.46,2.64-3.51,2.64-6.17c0-2.72-0.88-4.81-2.64-6.26
		c-1.76-1.46-4.3-2.18-7.63-2.18h-8.93v16.8h8.93C23.63,29.91,26.17,29.18,27.93,27.72z"/>
	<path d="M69.02,43.64l-7.68-10.8c-0.86,0.1-1.76,0.14-2.69,0.14h-9.02v10.66h-3.55v-33.6h12.58c4.29,0,7.65,1.02,10.08,3.07
		c2.43,2.05,3.65,4.86,3.65,8.45c0,2.62-0.67,4.84-1.99,6.65c-1.33,1.81-3.22,3.11-5.69,3.91l8.21,11.52H69.02z M66.19,27.75
		c1.76-1.47,2.64-3.54,2.64-6.19c0-2.72-0.88-4.81-2.64-6.26c-1.76-1.46-4.3-2.18-7.63-2.18h-8.93v16.85h8.93
		C61.88,29.96,64.43,29.22,66.19,27.75z"/>
	<path d="M108.81,40.56v3.07H85.05v-33.6h23.04v3.07H88.6v11.95h17.38v3.02H88.6v12.48H108.81z"/>
	<path d="M123.52,42.72c-2.29-0.8-4.06-1.86-5.3-3.17l1.39-2.74c1.21,1.22,2.83,2.2,4.85,2.95s4.1,1.13,6.24,1.13
		c3.01,0,5.26-0.55,6.77-1.66c1.5-1.1,2.26-2.54,2.26-4.3c0-1.34-0.41-2.42-1.22-3.22c-0.82-0.8-1.82-1.42-3-1.85
		c-1.18-0.43-2.83-0.9-4.94-1.42c-2.53-0.64-4.54-1.26-6.05-1.85c-1.5-0.59-2.79-1.5-3.86-2.71c-1.07-1.22-1.61-2.86-1.61-4.94
		c0-1.7,0.45-3.24,1.34-4.63c0.9-1.39,2.27-2.5,4.13-3.34c1.86-0.83,4.16-1.25,6.91-1.25c1.92,0,3.8,0.26,5.64,0.79
		c1.84,0.53,3.43,1.26,4.78,2.18l-1.2,2.83c-1.41-0.93-2.91-1.62-4.51-2.09c-1.6-0.46-3.17-0.7-4.7-0.7c-2.94,0-5.16,0.57-6.65,1.7
		c-1.49,1.14-2.23,2.6-2.23,4.39c0,1.34,0.41,2.42,1.22,3.24c0.82,0.82,1.84,1.44,3.07,1.87c1.23,0.43,2.89,0.9,4.97,1.42
		c2.46,0.61,4.46,1.21,5.98,1.8c1.52,0.59,2.81,1.49,3.86,2.69c1.06,1.2,1.58,2.82,1.58,4.87c0,1.7-0.46,3.24-1.37,4.63
		c-0.91,1.39-2.31,2.5-4.2,3.31c-1.89,0.82-4.21,1.22-6.96,1.22C128.2,43.92,125.81,43.52,123.52,42.72z"/>
	<path d="M178.99,40.56v3.07h-23.76v-33.6h23.04v3.07h-19.49v11.95h17.38v3.02h-17.38v12.48H178.99z"/>
	<path d="M219.69,10.04v33.6h-2.93l-21.6-27.26v27.26h-3.55v-33.6h2.93l21.65,27.26V10.04H219.69z"/>
	<path d="M241.43,13.11h-11.81v-3.07h27.17v3.07h-11.81v30.53h-3.55V13.11z"/>
	<path d="M290.49,40.56v3.07h-23.76v-33.6h23.04v3.07h-19.49v11.95h17.38v3.02h-17.38v12.48H290.49z"/>
	<path d="M303.11,10.04h13.68c3.55,0,6.69,0.71,9.41,2.14c2.72,1.42,4.83,3.41,6.34,5.95c1.5,2.54,2.26,5.45,2.26,8.71
		c0,3.26-0.75,6.17-2.26,8.71c-1.5,2.54-3.62,4.53-6.34,5.95c-2.72,1.42-5.86,2.14-9.41,2.14h-13.68V10.04z M316.6,40.56
		c2.94,0,5.52-0.58,7.73-1.75c2.21-1.17,3.92-2.78,5.14-4.85c1.22-2.06,1.82-4.44,1.82-7.13s-0.61-5.06-1.82-7.13
		c-1.22-2.06-2.93-3.68-5.14-4.85c-2.21-1.17-4.79-1.75-7.73-1.75h-9.94v27.46H316.6z"/>
	<path d="M390.16,29.16c1.2,1.42,1.8,3.26,1.8,5.5c0,2.88-1.06,5.1-3.19,6.65c-2.13,1.55-5.27,2.33-9.43,2.33h-15.46v-33.6h14.5
		c3.74,0,6.65,0.75,8.71,2.26c2.06,1.5,3.1,3.63,3.1,6.38c0,1.86-0.46,3.43-1.37,4.73s-2.17,2.26-3.77,2.9
		C387.25,26.79,388.96,27.74,390.16,29.16z M367.43,12.96v12.19h10.7c2.72,0,4.82-0.52,6.29-1.56c1.47-1.04,2.21-2.55,2.21-4.54
		c0-1.98-0.74-3.5-2.21-4.54c-1.47-1.04-3.57-1.56-6.29-1.56H367.43z M386.1,39.17c1.54-1.02,2.3-2.62,2.3-4.8
		c0-4.19-3.04-6.29-9.12-6.29h-11.86v12.62h11.86C382.29,40.71,384.57,40.2,386.1,39.17z"/>
	<path d="M415.14,32.02v11.62h-3.5V32.02L398.2,10.04h3.79l11.52,18.86l11.52-18.86h3.55L415.14,32.02z"/>
</g>
</svg>
